# xmcd
#
# Track frame offsets:
#	150
#	14175
#	22575
#	40875
#	52500
#	67350
#	80250
#	90375
#	107100
#	125700
#	146175
#	161250
#
# Disc length: 2422 seconds
#
# Revision: 6
# Processed by: cddbd v1.5.1PL0 Copyright (c) Steve Scherf et al.
# Submitted via: audiograbber 1.83.01
#
DISCID=9809740c
DTITLE=Various Artist - American Folk Blues Festival '65
DYEAR=2002
DGENRE=Blues
TTITLE0=Fred McDowell - Highway 61 
TTITLE1=J.B. Lenoir, Big Walter "Shakey" Horton - Slow Down 
TTITLE2=Big Walter "Shakey" Horton, Buddy Guy, Lonesome Jimmy Lee, Freddie Belo
TTITLE2=w - Christine 
TTITLE3=Roosevelt Sykes, Buddy Guy, Lonesome Jimmy Lee, Freddie Below - Come On
TTITLE3=Back Home 
TTITLE4=Eddie Boyd, Buddy Guy, Lonesome Jimmy Lee, Freddie Below - Five Long Ye
TTITLE4=ars 
TTITLE5=Eddie Boyd, Buddy Guy, Lonesome Jimmy Lee, Freddie Below - The Big Ques
TTITLE5=tion
TTITLE6=Lonesome Jimmy Lee, Buddy Guy, Eddie Boyd, Freddie Below - Rosalie
TTITLE7=John Lee Hooker, Buddy Guy, Freddie Below - King Of The World
TTITLE8=John Lee Hooker, Buddy Guy, Freddie Below - Della Mae
TTITLE9=Buddy Guy, Lonesome Jimmy Lee, Freddie Below - First Time I Met The Blu
TTITLE9=es
TTITLE10=Big Mama Thornton, Buddy Guy, Eddie Boyd, Lonesome Jimmy Lee, Freddie 
TTITLE10=Below - Hound Dog
TTITLE11=Doctor Ross - My Black Name Is Ringing
EXTD=YEAR: 1965 ID3G: 0
EXTT0=
EXTT1=
EXTT2=
EXTT3=
EXTT4=
EXTT5=
EXTT6=
EXTT7=
EXTT8=
EXTT9=
EXTT10=
EXTT11=
PLAYORDER=
